<svg xmlns="http://www.w3.org/2000/svg" version="1.1" xmlns:xlink="http://www.w3.org/1999/xlink" xmlns:svgjs="http://svgjs.dev/svgjs" width="1500" height="1500" viewBox="0 0 1500 1500"><rect width="1500" height="1500" fill="#000000"></rect><g transform="matrix(0.6666666666666666,0,0,0.6666666666666666,249.39393939393932,548.4260457145042)"><svg viewBox="0 0 396 160" data-background-color="#ffffff" preserveAspectRatio="xMidYMid meet" height="606" width="1500" xmlns="http://www.w3.org/2000/svg" xmlns:xlink="http://www.w3.org/1999/xlink"><g id="tight-bounds" transform="matrix(1,0,0,1,0.24000000000003752,-0.1687309760412461)"><svg viewBox="0 0 395.5199999999999 160.3374619520825" height="160.3374619520825" width="395.5199999999999"><g><svg viewBox="0 0 395.5199999999999 160.3374619520825" height="160.3374619520825" width="395.5199999999999"><g><svg viewBox="0 0 395.5199999999999 160.3374619520825" height="160.3374619520825" width="395.5199999999999"><g id="textblocktransform"><svg viewBox="0 0 395.5199999999999 160.3374619520825" height="160.3374619520825" width="395.5199999999999" id="textblock"><g><svg viewBox="0 0 395.5199999999999 109.76840349544779" height="109.76840349544779" width="395.5199999999999"><rect width="395.5199999999999" height="109.76840349544779" x="0" y="0" opacity="1" fill="#ffffff" data-fill-palette-color="tertiary"></rect><g transform="matrix(1,0,0,1,23.461705032,23.461705032000005)"><svg width="348.59658993599993" viewBox="-0.25432123456000005 -37.8 280.37523032330495 50.55" height="62.844993431447776" data-palette-color="#ffffff"><path d="M21.75-12L10.15-12 6.9-2.5 10.75-1.5Q10.9-0.55 10.5 0.25L10.5 0.25Q9.15 0.15 7.48 0.08 5.8 0 4.4 0L4.4 0Q3 0 2.1 0.08 1.2 0.15-0.2 0.25L-0.2 0.25Q-0.35-0.7-0.1-1.5L-0.1-1.5Q1-1.65 1.95-1.9 2.9-2.15 3.75-2.5L3.75-2.5 15.6-35.95Q16-36.2 16.57-36.27 17.15-36.35 17.55-36.35L17.55-36.35 31.1-2.5 34.95-1.5Q35.1-0.55 34.7 0.25L34.7 0.25Q33.35 0.15 31.68 0.08 30 0 28.6 0L28.6 0Q27.65 0 26.3 0.05 24.95 0.1 23.63 0.15 22.3 0.2 21.35 0.25L21.35 0.25Q21.2-0.7 21.45-1.5L21.45-1.5Q22.6-1.65 23.58-1.9 24.55-2.15 25.45-2.5L25.45-2.5 21.75-12ZM15.7-29L15.6-29Q15.1-27.2 14.58-25.35 14.05-23.5 13.4-21.6L13.4-21.6 11.05-14.75 20.65-14.75 17.9-21.85Q17.05-23.9 16.53-25.6 16-27.3 15.7-29L15.7-29ZM43.45-25.1L43.4-23.1 43.65-22.85Q45.65-24.6 47.55-25.3 49.45-26 51.15-26L51.15-26Q54.55-26 56.85-24.18 59.15-22.35 60.35-19.4 61.55-16.45 61.55-13.15L61.55-13.15Q61.55-6.2 58.12-2.63 54.7 0.95 48.75 0.95L48.75 0.95Q47.8 0.95 46.32 0.65 44.85 0.35 43.65-0.15L43.65-0.15 43.65 10 48 11Q48.15 11.95 47.75 12.75L47.75 12.75Q46.4 12.65 44.47 12.58 42.55 12.5 41.15 12.5L41.15 12.5Q39.75 12.5 38.1 12.58 36.45 12.65 35.05 12.75L35.05 12.75Q34.9 11.8 35.15 11L35.15 11Q36 10.8 36.9 10.58 37.8 10.35 38.65 10L38.65 10 38.65-22 34.55-22.4Q34.4-23.4 34.8-24.15L34.8-24.15Q35.2-24.2 37.05-24.53 38.9-24.85 41.7-25.5L41.7-25.5Q42.25-25.45 42.65-25.35 43.05-25.25 43.45-25.1L43.45-25.1ZM43.65-20.2L43.65-2.95Q44.6-2.3 45.77-1.83 46.95-1.35 48.65-1.35L48.65-1.35Q52.4-1.35 54.32-4.38 56.25-7.4 56.25-12.85L56.25-12.85Q56.25-18 54.47-20.5 52.7-23 49.65-23L49.65-23Q47.8-23 46.07-22.08 44.35-21.15 43.65-20.2L43.65-20.2ZM72.8-25.1L72.75-23.1 73-22.85Q75-24.6 76.9-25.3 78.8-26 80.5-26L80.5-26Q83.9-26 86.2-24.18 88.5-22.35 89.7-19.4 90.9-16.45 90.9-13.15L90.9-13.15Q90.9-6.2 87.47-2.63 84.05 0.95 78.1 0.95L78.1 0.95Q77.15 0.95 75.67 0.65 74.2 0.35 73-0.15L73-0.15 73 10 77.35 11Q77.5 11.95 77.1 12.75L77.1 12.75Q75.75 12.65 73.82 12.58 71.9 12.5 70.5 12.5L70.5 12.5Q69.1 12.5 67.45 12.58 65.8 12.65 64.4 12.75L64.4 12.75Q64.25 11.8 64.5 11L64.5 11Q65.35 10.8 66.25 10.58 67.15 10.35 68 10L68 10 68-22 63.9-22.4Q63.75-23.4 64.15-24.15L64.15-24.15Q64.55-24.2 66.4-24.53 68.25-24.85 71.05-25.5L71.05-25.5Q71.6-25.45 72-25.35 72.4-25.25 72.8-25.1L72.8-25.1ZM73-20.2L73-2.95Q73.95-2.3 75.12-1.83 76.3-1.35 78-1.35L78-1.35Q81.75-1.35 83.67-4.38 85.6-7.4 85.6-12.85L85.6-12.85Q85.6-18 83.82-20.5 82.05-23 79-23L79-23Q77.15-23 75.42-22.08 73.7-21.15 73-20.2L73-20.2ZM100.04-13.5L100.04-12.5Q100.04-7.45 102.07-4.67 104.09-1.9 107.59-1.9L107.59-1.9Q109.14-1.9 110.19-2.08 111.24-2.25 112.27-2.75 113.29-3.25 114.59-4.15L114.59-4.15Q115.39-3.8 115.49-2.95L115.49-2.95Q113.94-1.15 111.79-0.15 109.64 0.85 107.44 0.85L107.44 0.85Q103.64 0.85 100.79-0.75 97.94-2.35 96.34-5.35 94.74-8.35 94.74-12.5L94.74-12.5Q94.74-16.75 96.42-19.73 98.09-22.7 100.92-24.28 103.74-25.85 107.19-25.85L107.19-25.85Q111.64-25.85 113.77-22.88 115.89-19.9 115.89-15.2L115.89-15.2Q115.89-14.85 115.89-14.55 115.89-14.25 115.84-13.9L115.84-13.9 115.14-13.35 100.04-13.5ZM107.14-23.7L107.14-23.7Q105.69-23.7 104.27-22.8 102.84-21.9 101.74-20.1 100.64-18.3 100.24-15.55L100.24-15.55 111.14-16.15Q111.14-20 110.32-21.85 109.49-23.7 107.14-23.7ZM141.24-22.5L133.69-13.25 141.14-2.5Q141.99-2.05 142.84-1.9 143.69-1.75 144.49-1.5L144.49-1.5Q144.64-0.55 144.24 0.25L144.24 0.25Q142.89 0.15 141.47 0.08 140.04 0 138.64 0L138.64 0Q137.24 0 135.59 0.08 133.94 0.15 132.54 0.25L132.54 0.25Q132.39-0.7 132.64-1.5L132.64-1.5 135.64-2.35 130.69-9.5 125.09-2.5 128.44-1.5Q128.59-0.55 128.19 0.25L128.19 0.25Q126.84 0.15 125.77 0.08 124.69 0 123.29 0L123.29 0Q121.89 0 120.74 0.08 119.59 0.15 118.19 0.25L118.19 0.25Q118.04-0.7 118.29-1.5L118.29-1.5Q119.29-1.65 120.24-1.85 121.19-2.05 121.89-2.5L121.89-2.5 129.24-11.65 121.84-22.5 117.99-23.5Q117.84-24.45 118.24-25.25L118.24-25.25Q119.59-25.2 121.27-25.1 122.94-25 124.34-25L124.34-25Q125.79-25 127.59-25.1 129.39-25.2 130.79-25.25L130.79-25.25Q130.94-24.3 130.69-23.5L130.69-23.5Q129.74-23.35 128.77-23.05 127.79-22.75 127.34-22.5L127.34-22.5 132.24-15.4 137.94-22.5 133.99-23.5Q133.84-24.45 134.24-25.25L134.24-25.25Q135.59-25.2 136.94-25.1 138.29-25 139.69-25L139.69-25Q141.14-25 142.34-25.1 143.54-25.2 144.94-25.25L144.94-25.25Q145.09-24.3 144.84-23.5L144.84-23.5Q143.89-23.3 142.97-23.1 142.04-22.9 141.24-22.5L141.24-22.5ZM157.34-8.35L157.34-8.35Q156.44-8.35 155.49-8.47 154.54-8.6 153.54-8.9L153.54-8.9Q153.04-8.15 152.84-7.7 152.64-7.25 152.64-6.95L152.64-6.95Q152.64-6.5 152.99-6.05 153.34-5.6 154.84-5.18 156.34-4.75 159.74-4.35L159.74-4.35Q163.09-3.95 165.34-3.3 167.59-2.65 168.74-1.25 169.89 0.15 169.89 2.75L169.89 2.75Q169.89 5 168.79 6.6 167.69 8.2 165.84 9.25 163.99 10.3 161.79 10.8 159.59 11.3 157.34 11.3L157.34 11.3Q153.54 11.3 151.16 10.4 148.79 9.5 147.66 7.98 146.54 6.45 146.54 4.7L146.54 4.7Q146.54 2.9 147.54 1.13 148.54-0.65 151.24-1.75L151.24-1.75Q149.59-3.2 149.59-5.05L149.59-5.05Q149.59-6.7 150.21-7.78 150.84-8.85 151.64-9.6L151.64-9.6Q149.64-10.6 148.29-12.33 146.94-14.05 146.94-16.65L146.94-16.65Q146.94-19.05 147.89-20.7 148.84-22.35 150.39-23.35 151.94-24.35 153.76-24.8 155.59-25.25 157.34-25.25L157.34-25.25Q158.54-25.25 159.84-25.05 161.14-24.85 162.34-24.35L162.34-24.35 168.99-28.45Q169.39-28.25 169.74-27.55 170.09-26.85 170.29-26.08 170.49-25.3 170.39-24.8L170.39-24.8Q169.04-24.35 167.39-23.98 165.74-23.6 164.04-23.5L164.04-23.5Q165.64-22.55 166.69-20.85 167.74-19.15 167.74-16.65L167.74-16.65Q167.74-14.45 166.76-12.88 165.79-11.3 164.19-10.3 162.59-9.3 160.79-8.83 158.99-8.35 157.34-8.35ZM157.34-10.25L157.34-10.25Q159.89-10.25 161.54-12.08 163.19-13.9 163.19-16.75L163.19-16.75Q163.19-19.85 161.54-21.6 159.89-23.35 157.34-23.35L157.34-23.35Q154.79-23.35 153.14-21.6 151.49-19.85 151.49-16.75L151.49-16.75Q151.49-13.9 153.14-12.08 154.79-10.25 157.34-10.25ZM158.09-0.35L158.09-0.35Q157.19-0.5 155.81-0.65 154.44-0.8 153.04-1.15L153.04-1.15Q151.84-0.15 151.21 0.98 150.59 2.1 150.59 4L150.59 4Q150.59 6.1 152.39 7.75 154.19 9.4 157.59 9.4L157.59 9.4Q160.04 9.4 161.79 8.6 163.54 7.8 164.46 6.55 165.39 5.3 165.39 4.05L165.39 4.05Q165.39 2.55 164.36 1.7 163.34 0.85 161.66 0.38 159.99-0.1 158.09-0.35ZM180.09-37.25L180.09-2.5 183.94-1.5Q184.09-0.55 183.69 0.25L183.69 0.25Q182.34 0.15 180.66 0.08 178.99 0 177.59 0L177.59 0Q176.19 0 174.54 0.08 172.89 0.15 171.49 0.25L171.49 0.25Q171.34-0.7 171.59-1.5L171.59-1.5Q172.54-1.75 173.46-1.95 174.39-2.15 175.09-2.5L175.09-2.5 175.09-34.3 170.94-34.7Q170.79-35.7 171.19-36.45L171.19-36.45Q172.99-36.7 174.81-37.05 176.64-37.4 178.19-37.8L178.19-37.8Q178.69-37.75 179.14-37.63 179.59-37.5 180.09-37.25L180.09-37.25ZM186.38-12.5L186.38-12.5Q186.38-16.4 187.91-19.45 189.43-22.5 192.28-24.25 195.13-26 198.98-26L198.98-26Q202.88-26 205.71-24.25 208.53-22.5 210.06-19.45 211.58-16.4 211.58-12.5L211.58-12.5Q211.58-8.5 210.06-5.45 208.53-2.4 205.71-0.7 202.88 1 198.98 1L198.98 1Q195.13 1 192.28-0.7 189.43-2.4 187.91-5.45 186.38-8.5 186.38-12.5ZM206.18-11.8L206.18-11.8Q206.18-15.15 205.43-17.88 204.68-20.6 203.08-22.23 201.48-23.85 198.88-23.85L198.88-23.85Q196.23-23.85 194.66-22.25 193.08-20.65 192.43-18 191.78-15.35 191.78-12.15L191.78-12.15Q191.78-9.25 192.53-6.73 193.28-4.2 194.91-2.68 196.53-1.15 199.08-1.15L199.08-1.15Q201.78-1.15 203.33-2.65 204.88-4.15 205.53-6.6 206.18-9.05 206.18-11.8ZM221.73-37.25L221.73-22.75 221.98-22.5Q223.98-24.25 225.88-24.88 227.78-25.5 229.48-25.5L229.48-25.5Q232.73-25.5 235.08-23.9 237.43-22.3 238.71-19.38 239.98-16.45 239.98-12.45L239.98-12.45Q239.98-8.1 238.26-5.1 236.53-2.1 233.51-0.55 230.48 1 226.48 1L226.48 1Q224.43 1 221.76 0.5 219.08 0 216.98-0.9L216.98-0.9 216.98-34.3 212.83-34.7Q212.68-35.7 213.08-36.45L213.08-36.45Q214.88-36.7 216.53-37.05 218.18-37.4 219.73-37.8L219.73-37.8Q220.68-37.75 221.73-37.25L221.73-37.25ZM221.98-19.6L221.98-2.15Q223.08-1.65 224.18-1.33 225.28-1 226.98-1L226.98-1Q230.53-1 232.58-4 234.63-7 234.63-12.45L234.63-12.45Q234.63-17.7 232.66-20.13 230.68-22.55 227.98-22.55L227.98-22.55Q226.73-22.55 225.53-22.08 224.33-21.6 223.38-20.93 222.43-20.25 221.98-19.6L221.98-19.6ZM250.58 0.85L250.58 0.85Q247.58 0.85 245.53-0.73 243.48-2.3 243.48-5.5L243.48-5.5Q243.48-8 244.7-9.6 245.93-11.2 248-12.08 250.08-12.95 252.63-13.25 255.18-13.55 257.83-13.5L257.83-13.5 257.88-17.9Q257.93-20.7 256.83-22.23 255.73-23.75 253.48-23.75L253.48-23.75Q252.23-23.75 251.08-23.58 249.93-23.4 248.78-23L248.78-23 248.13-17.7Q247.73-17.5 247.03-17.48 246.33-17.45 245.93-17.5L245.93-17.5Q245.48-19.15 245.18-20.8 244.88-22.45 244.93-24L244.93-24Q247.28-25.1 249.65-25.55 252.03-26 254.83-26L254.83-26Q257.63-26 259.35-25.1 261.08-24.2 261.9-22 262.73-19.8 262.73-15.85L262.73-15.85 262.73-2.45Q263.58-2.05 264.48-1.88 265.38-1.7 266.23-1.45L266.23-1.45Q266.38-0.5 265.98 0.3L265.98 0.3Q265.18 0.45 264.05 0.55 262.93 0.65 261.78 0.65L261.78 0.65Q260.13 0.65 258.93 0.35L258.93 0.35 258.23-2.25 258.03-2.25Q256.78-0.95 254.93-0.05 253.08 0.85 250.58 0.85ZM252.48-1.9L252.48-1.9Q253.88-1.9 255.48-2.78 257.08-3.65 257.83-4.75L257.83-4.75 257.83-11.5Q252.68-11.5 250.58-10.28 248.48-9.05 248.48-6L248.48-6Q248.48-3.95 249.58-2.93 250.68-1.9 252.48-1.9ZM276.23-37.25L276.23-2.5 280.08-1.5Q280.23-0.55 279.83 0.25L279.83 0.25Q278.48 0.15 276.8 0.08 275.13 0 273.73 0L273.73 0Q272.33 0 270.68 0.08 269.03 0.15 267.63 0.25L267.63 0.25Q267.48-0.7 267.73-1.5L267.73-1.5Q268.68-1.75 269.6-1.95 270.53-2.15 271.23-2.5L271.23-2.5 271.23-34.3 267.08-34.7Q266.93-35.7 267.33-36.45L267.33-36.45Q269.13-36.7 270.95-37.05 272.78-37.4 274.33-37.8L274.33-37.8Q274.83-37.75 275.28-37.63 275.73-37.5 276.23-37.25L276.23-37.25Z" opacity="1" transform="matrix(1,0,0,1,0,0)" fill="#000000" class="wordmark-text-0" data-fill-palette-color="quaternary" id="text-0"></path></svg></g></svg></g><g transform="matrix(1,0,0,1,0,121.49925601144778)"><svg viewBox="0 0 395.5199999999999 38.83820594063472" height="38.83820594063472" width="395.5199999999999"><g transform="matrix(1,0,0,1,0,0)"><svg width="395.5199999999999" viewBox="1.65 -36.25 373.24 36.65" height="38.83820594063472" data-palette-color="#111111"><path d="M9.5 0L5.25 0 5.25-35.85 8.85-35.85Q9.5-35.85 9.83-35.73 10.15-35.6 10.5-35L10.5-35 22.9-12.95Q23.3-12.3 23.53-11.68 23.75-11.05 24-10.35L24-10.35Q24.25-11 24.53-11.68 24.8-12.35 25.15-13L25.15-13 37.3-35Q37.65-35.6 37.98-35.73 38.3-35.85 38.95-35.85L38.95-35.85 42.55-35.85 42.55 0 38.3 0 38.3-26.35Q38.3-26.85 38.33-27.45 38.35-28.05 38.4-28.7L38.4-28.7 26.1-6.3Q25.5-5.15 24.35-5.15L24.35-5.15 23.65-5.15Q22.55-5.15 21.9-6.3L21.9-6.3 9.35-28.75Q9.45-28.1 9.47-27.48 9.5-26.85 9.5-26.35L9.5-26.35 9.5 0ZM6.75 0L1.65 0 1.65-2.05Q1.65-2.5 1.85-2.78 2.05-3.05 2.45-3.1L2.45-3.1 6.2-3.9 6.75 0ZM13.6 0L8.5 0 9.05-3.9 12.8-3.1Q13.2-3.05 13.4-2.78 13.6-2.5 13.6-2.05L13.6-2.05 13.6 0ZM1.65-35.85L6.75-35.85 6.2-31.95 2.45-32.75Q2.05-32.85 1.85-33.1 1.65-33.35 1.65-33.8L1.65-33.8 1.65-35.85ZM39.3 0L34.2 0 34.2-2.05Q34.2-2.5 34.4-2.78 34.6-3.05 35-3.1L35-3.1 38.75-3.9 39.3 0ZM46.15 0L41.05 0 41.6-3.9 45.35-3.1Q45.75-3.05 45.95-2.78 46.15-2.5 46.15-2.05L46.15-2.05 46.15 0ZM41.05-35.85L46.15-35.85 46.15-33.8Q46.15-33.35 45.95-33.1 45.75-32.85 45.35-32.75L45.35-32.75 41.6-31.95 41.05-35.85ZM82.01 0L77.16 0 77.16-35.85 82.01-35.85 82.01 0ZM78.66 0L73.56 0 73.56-2.05Q73.56-2.5 73.76-2.78 73.96-3.05 74.36-3.1L74.36-3.1 78.11-3.9 78.66 0ZM85.66 0L80.56 0 81.11-3.9 84.86-3.1Q85.26-3.05 85.46-2.78 85.66-2.5 85.66-2.05L85.66-2.05 85.66 0ZM73.56-35.85L78.66-35.85 78.11-31.95 74.36-32.75Q73.96-32.85 73.76-33.1 73.56-33.35 73.56-33.8L73.56-33.8 73.56-35.85ZM80.56-35.85L85.66-35.85 85.66-33.8Q85.66-33.35 85.46-33.1 85.26-32.85 84.86-32.75L84.86-32.75 81.11-31.95 80.56-35.85ZM120.91 0L116.66 0 116.66-35.85 119.16-35.85Q119.81-35.85 120.16-35.7 120.51-35.55 120.86-35L120.86-35 141.61-8Q141.51-8.65 141.49-9.28 141.46-9.9 141.46-10.45L141.46-10.45 141.46-35.85 145.71-35.85 145.71 0 143.26 0Q142.71 0 142.34-0.2 141.96-0.4 141.56-0.9L141.56-0.9 120.81-27.85Q120.86-27.25 120.89-26.65 120.91-26.05 120.91-25.55L120.91-25.55 120.91 0ZM118.16 0L113.06 0 113.06-2.05Q113.06-2.5 113.26-2.78 113.46-3.05 113.86-3.1L113.86-3.1 117.61-3.9 118.16 0ZM125.01 0L119.91 0 120.46-3.9 124.21-3.1Q124.61-3.05 124.81-2.78 125.01-2.5 125.01-2.05L125.01-2.05 125.01 0ZM113.06-35.85L118.16-35.85 117.61-31.95 113.86-32.75Q113.46-32.85 113.26-33.1 113.06-33.35 113.06-33.8L113.06-33.8 113.06-35.85ZM137.36-35.85L142.46-35.85 141.91-31.95 138.16-32.75Q137.76-32.85 137.56-33.1 137.36-33.35 137.36-33.8L137.36-33.8 137.36-35.85ZM144.21-35.85L149.31-35.85 149.31-33.8Q149.31-33.35 149.11-33.1 148.91-32.85 148.51-32.75L148.51-32.75 144.76-31.95 144.21-35.85ZM184.62 0L180.37 0 180.37-35.85 182.87-35.85Q183.52-35.85 183.87-35.7 184.22-35.55 184.57-35L184.57-35 205.32-8Q205.22-8.65 205.19-9.28 205.17-9.9 205.17-10.45L205.17-10.45 205.17-35.85 209.42-35.85 209.42 0 206.97 0Q206.42 0 206.04-0.2 205.67-0.4 205.27-0.9L205.27-0.9 184.52-27.85Q184.57-27.25 184.59-26.65 184.62-26.05 184.62-25.55L184.62-25.55 184.62 0ZM181.87 0L176.77 0 176.77-2.05Q176.77-2.5 176.97-2.78 177.17-3.05 177.57-3.1L177.57-3.1 181.32-3.9 181.87 0ZM188.72 0L183.62 0 184.17-3.9 187.92-3.1Q188.32-3.05 188.52-2.78 188.72-2.5 188.72-2.05L188.72-2.05 188.72 0ZM176.77-35.85L181.87-35.85 181.32-31.95 177.57-32.75Q177.17-32.85 176.97-33.1 176.77-33.35 176.77-33.8L176.77-33.8 176.77-35.85ZM201.07-35.85L206.17-35.85 205.62-31.95 201.87-32.75Q201.47-32.85 201.27-33.1 201.07-33.35 201.07-33.8L201.07-33.8 201.07-35.85ZM207.92-35.85L213.02-35.85 213.02-33.8Q213.02-33.35 212.82-33.1 212.62-32.85 212.22-32.75L212.22-32.75 208.47-31.95 207.92-35.85ZM248.92 0L244.07 0 244.07-35.85 248.92-35.85 248.92 0ZM245.57 0L240.47 0 240.47-2.05Q240.47-2.5 240.67-2.78 240.87-3.05 241.27-3.1L241.27-3.1 245.02-3.9 245.57 0ZM252.57 0L247.47 0 248.02-3.9 251.77-3.1Q252.17-3.05 252.37-2.78 252.57-2.5 252.57-2.05L252.57-2.05 252.57 0ZM240.47-35.85L245.57-35.85 245.02-31.95 241.27-32.75Q240.87-32.85 240.67-33.1 240.47-33.35 240.47-33.8L240.47-33.8 240.47-35.85ZM247.47-35.85L252.57-35.85 252.57-33.8Q252.57-33.35 252.37-33.1 252.17-32.85 251.77-32.75L251.77-32.75 248.02-31.95 247.47-35.85ZM287.83 0L283.58 0 283.58-35.85 286.08-35.85Q286.73-35.85 287.08-35.7 287.43-35.55 287.78-35L287.78-35 308.53-8Q308.43-8.65 308.4-9.28 308.38-9.9 308.38-10.45L308.38-10.45 308.38-35.85 312.63-35.85 312.63 0 310.18 0Q309.63 0 309.25-0.2 308.88-0.4 308.48-0.9L308.48-0.9 287.73-27.85Q287.78-27.25 287.8-26.65 287.83-26.05 287.83-25.55L287.83-25.55 287.83 0ZM285.08 0L279.98 0 279.98-2.05Q279.98-2.5 280.18-2.78 280.38-3.05 280.78-3.1L280.78-3.1 284.53-3.9 285.08 0ZM291.93 0L286.83 0 287.38-3.9 291.13-3.1Q291.53-3.05 291.73-2.78 291.93-2.5 291.93-2.05L291.93-2.05 291.93 0ZM279.98-35.85L285.08-35.85 284.53-31.95 280.78-32.75Q280.38-32.85 280.18-33.1 279.98-33.35 279.98-33.8L279.98-33.8 279.98-35.85ZM304.28-35.85L309.38-35.85 308.83-31.95 305.08-32.75Q304.68-32.85 304.48-33.1 304.28-33.35 304.28-33.8L304.28-33.8 304.28-35.85ZM311.13-35.85L316.23-35.85 316.23-33.8Q316.23-33.35 316.03-33.1 315.83-32.85 315.43-32.75L315.43-32.75 311.68-31.95 311.13-35.85ZM361.84 0.4L361.84 0.4Q357.89 0.4 354.46-0.83 351.04-2.05 348.54-4.65L348.54-4.65Q346.19-7.1 344.86-10.53 343.54-13.95 343.54-18L343.54-18Q343.54-22 344.84-25.38 346.14-28.75 348.54-31.2L348.54-31.2Q350.89-33.6 354.29-34.93 357.69-36.25 361.89-36.25L361.89-36.25Q364.14-36.25 366.24-35.9 368.34-35.55 370.41-34.95 372.49-34.35 374.59-33.6L374.59-33.6 374.59-29.95 370.74-30.65Q368.99-31.2 366.89-31.65 364.79-32.1 362.24-32.1L362.24-32.1Q357.84-32.1 354.76-30.33 351.69-28.55 350.09-25.35 348.49-22.15 348.49-17.85L348.49-17.85Q348.49-13.5 350.11-10.3 351.74-7.1 354.79-5.33 357.84-3.55 362.09-3.55L362.09-3.55Q364.49-3.55 366.59-4.13 368.69-4.7 370.49-5.65L370.49-5.65 370.49-13.5 364.94-13.5Q364.49-13.5 364.19-13.78 363.89-14.05 363.89-14.45L363.89-14.45 363.89-17.2 374.89-17.2 374.89-3.5Q372.54-1.7 369.11-0.65 365.69 0.4 361.84 0.4ZM371.24-26.2L370.49-31.2 374.59-29.95 374.59-25.4 372.29-25.4Q371.89-25.4 371.61-25.58 371.34-25.75 371.24-26.2L371.24-26.2Z" opacity="1" transform="matrix(1,0,0,1,0,0)" fill="#ffffff" class="slogan-text-1" data-fill-palette-color="secondary" id="text-1"></path></svg></g></svg></g></svg></g></svg></g></svg></g><defs></defs></svg><rect width="395.5199999999999" height="160.3374619520825" fill="none" stroke="none" visibility="hidden"></rect></g></svg></g></svg>