<svg xmlns="http://www.w3.org/2000/svg" version="1.1" xmlns:xlink="http://www.w3.org/1999/xlink" xmlns:svgjs="http://svgjs.dev/svgjs" width="1500" height="666" viewBox="0 0 1500 666"><g transform="matrix(1,0,0,1,-0.9090909090909918,0.8815986462494152)"><svg viewBox="0 0 396 176" data-background-color="#ffffff" preserveAspectRatio="xMidYMid meet" height="666" width="1500" xmlns="http://www.w3.org/2000/svg" xmlns:xlink="http://www.w3.org/1999/xlink"><g id="tight-bounds" transform="matrix(1,0,0,1,0.2400000000000091,-0.2329750176274672)"><svg viewBox="0 0 395.52 176.46595003525493" height="176.46595003525493" width="395.52"><g><svg viewBox="0 0 395.52 176.46595003525493" height="176.46595003525493" width="395.52"><g><svg viewBox="0 0 395.52 176.46595003525493" height="176.46595003525493" width="395.52"><g id="textblocktransform"><svg viewBox="0 0 395.52 176.46595003525493" height="176.46595003525493" width="395.52" id="textblock"><g><svg viewBox="0 0 395.52 119.64667392526849" height="119.64667392526849" width="395.52"><rect width="395.52" height="119.64667392526849" x="0" y="0" opacity="1" fill="#fe5b25" data-fill-palette-color="tertiary"></rect><g transform="matrix(1,0,0,1,23.461705032,23.461705032)"><svg width="348.596589936" viewBox="0.34 -38.87 232.87 48.589999999999996" height="72.72326386126848" data-palette-color="#ffffff"><path d="M16.43 0L0.34 0 0.34-8.42 3.88-8.42 11.18-30.44 5.93-30.44 5.93-38.87 30.05-38.87 39.18-8.42 42.72-8.42 42.72 0 20.83 0 20.83-8.42 24.85-8.42 23.73-12.7 13.67-12.7 12.4-8.42 16.43-8.42 16.43 0ZM19.02-30.66L15.48-18.8 22.12-18.8 19.02-30.66ZM62.94 9.72L44.14 9.72 44.14 2.39 47.68 2.39 47.68-18.53 44.14-18.53 44.14-25.2 59.15-26.64 59.15-23.46Q60.67-24.9 62.67-25.77 64.67-26.64 66.75-26.64L66.75-26.64Q70.31-26.64 72.86-24.95 75.41-23.27 76.78-20.21 78.15-17.16 78.15-13.06L78.15-13.06Q78.15-8.98 76.8-5.94 75.46-2.91 73.03-1.25 70.6 0.42 67.36 0.42L67.36 0.42Q63.16 0.42 59.4-2.64L59.4-2.64 59.4 2.39 62.94 2.39 62.94 9.72ZM62.96-6.88L62.96-6.88Q64.69-6.88 65.65-8.52 66.6-10.16 66.6-13.09L66.6-13.09Q66.6-16.02 65.65-17.68 64.69-19.34 62.96-19.34L62.96-19.34Q62.06-19.34 61.06-19.06 60.06-18.77 59.4-18.29L59.4-18.29 59.4-8.01Q60.06-7.54 61.06-7.21 62.06-6.88 62.96-6.88ZM99.26 9.72L80.46 9.72 80.46 2.39 84 2.39 84-18.53 80.46-18.53 80.46-25.2 95.48-26.64 95.48-23.46Q96.99-24.9 98.99-25.77 101-26.64 103.07-26.64L103.07-26.64Q106.64-26.64 109.19-24.95 111.74-23.27 113.11-20.21 114.47-17.16 114.47-13.06L114.47-13.06Q114.47-8.98 113.13-5.94 111.79-2.91 109.36-1.25 106.93 0.42 103.68 0.42L103.68 0.42Q99.48 0.42 95.72-2.64L95.72-2.64 95.72 2.39 99.26 2.39 99.26 9.72ZM99.29-6.88L99.29-6.88Q101.02-6.88 101.97-8.52 102.92-10.16 102.92-13.09L102.92-13.09Q102.92-16.02 101.97-17.68 101.02-19.34 99.29-19.34L99.29-19.34Q98.38-19.34 97.38-19.06 96.38-18.77 95.72-18.29L95.72-18.29 95.72-8.01Q96.38-7.54 97.38-7.21 98.38-6.88 99.29-6.88ZM132.66 0.44L132.66 0.44Q125.41 0.44 121.29-3.21 117.18-6.86 117.18-13.33L117.18-13.33Q117.18-17.41 118.97-20.39 120.77-23.36 123.99-24.99 127.21-26.61 131.49-26.61L131.49-26.61Q135.66-26.61 138.64-25.09 141.62-23.56 143.19-20.84 144.77-18.12 144.77-14.55L144.77-14.55Q144.77-13.72 144.69-12.95 144.62-12.18 144.52-11.55L144.52-11.55 128.83-11.55Q129.24-9.06 131.08-7.97 132.93-6.88 135.59-6.88L135.59-6.88Q137.83-6.88 139.87-7.68 141.91-8.47 143.33-9.67L143.33-9.67 143.99-9.38 143.99-2.37Q142.81-1.56 140.96-0.93 139.1-0.29 136.94 0.07 134.78 0.44 132.66 0.44ZM132.12-20.61L132.12-20.61Q130.49-20.61 129.66-19.34 128.83-18.07 128.73-15.8L128.73-15.8 135.51-15.8Q135.42-18.07 134.6-19.34 133.78-20.61 132.12-20.61ZM155.12 0L147.04 0 147.04-7.32 150.58-7.32 154.16-13.45 150.72-18.85 147.55-18.85 147.55-26.17 160.54-26.17 164.76-19.63 167.91-26.17 175.48-26.17 175.48-18.85 172.18-18.85 168.89-13.23 172.7-7.32 175.99-7.32 175.99 0 162.76 0 158.41-6.81 155.12 0ZM193.84 0.44L193.84 0.44Q191.34 0.44 189-0.15 186.66-0.73 184.85-1.83L184.85-1.83 184.09 0 178.72 0 178.72-9.18 184.97-9.18Q185.53-7.28 186.93-6.18 188.32-5.08 189.95-5.08L189.95-5.08Q192.1-5.08 192.1-6.69L192.1-6.69Q192.1-7.86 191.14-8.5 190.17-9.13 188.65-9.57 187.12-10.01 185.41-10.52 183.7-11.04 182.18-11.93 180.65-12.82 179.69-14.37 178.72-15.92 178.72-18.43L178.72-18.43Q178.72-20.7 179.93-22.56 181.14-24.41 183.59-25.52 186.05-26.64 189.76-26.64L189.76-26.64Q192.15-26.64 194.19-26.14 196.23-25.63 198.01-24.54L198.01-24.54 198.6-26.17 203.97-26.17 203.97-17.77 197.72-17.77Q197.08-19.63 195.9-20.5 194.71-21.36 193.35-21.36L193.35-21.36Q190.95-21.36 190.95-19.9L190.95-19.9Q190.95-18.87 191.94-18.27 192.93-17.68 194.48-17.24 196.03-16.8 197.77-16.24 199.5-15.67 201.05-14.72 202.6-13.77 203.59-12.18 204.58-10.6 204.58-8.06L204.58-8.06Q204.58-4.17 201.78-1.87 198.99 0.44 193.84 0.44ZM222.47 0.44L222.47 0.44Q219.98 0.44 217.64-0.15 215.29-0.73 213.49-1.83L213.49-1.83 212.73 0 207.36 0 207.36-9.18 213.61-9.18Q214.17-7.28 215.56-6.18 216.95-5.08 218.59-5.08L218.59-5.08Q220.74-5.08 220.74-6.69L220.74-6.69Q220.74-7.86 219.77-8.5 218.81-9.13 217.28-9.57 215.76-10.01 214.05-10.52 212.34-11.04 210.81-11.93 209.29-12.82 208.32-14.37 207.36-15.92 207.36-18.43L207.36-18.43Q207.36-20.7 208.57-22.56 209.78-24.41 212.23-25.52 214.68-26.64 218.39-26.64L218.39-26.64Q220.79-26.64 222.82-26.14 224.86-25.63 226.65-24.54L226.65-24.54 227.23-26.17 232.6-26.17 232.6-17.77 226.35-17.77Q225.72-19.63 224.53-20.5 223.35-21.36 221.98-21.36L221.98-21.36Q219.59-21.36 219.59-19.9L219.59-19.9Q219.59-18.87 220.58-18.27 221.57-17.68 223.12-17.24 224.67-16.8 226.4-16.24 228.13-15.67 229.68-14.72 231.24-13.77 232.22-12.18 233.21-10.6 233.21-8.06L233.21-8.06Q233.21-4.17 230.42-1.87 227.62 0.44 222.47 0.44Z" opacity="1" transform="matrix(1,0,0,1,0,0)" fill="#ffffff" class="wordmark-text-0" data-fill-palette-color="quaternary" id="text-0"></path></svg></g></svg></g><g transform="matrix(1,0,0,1,0,131.3775264412685)"><svg viewBox="0 0 395.52 45.08842359398646" height="45.08842359398646" width="395.52"><g transform="matrix(1,0,0,1,0,0)"><svg width="395.52" viewBox="2.7 -35.8 318.87 36.349999999999994" height="45.08842359398646" data-palette-color="#000000"><path d="M21-35.8L21-35.8Q26.1-35.8 31.45-33.65L31.45-33.65 31.45-25.5 27.85-25.5 26.95-30.7Q24.25-31.8 21.1-31.8L21.1-31.8Q15.1-31.8 11.53-27.63 7.95-23.45 7.95-17.2 7.95-10.95 11.48-7.23 15-3.5 20.4-3.5L20.4-3.5Q23.9-3.5 27.5-5.15L27.5-5.15 27.5-13.1 22.55-14.75 22.55-16.95 36.7-16.95 36.7-14.75 32.15-13.1 32.15-3.4Q28.75-0.85 23.95 0.1L23.95 0.1Q21.85 0.55 19.15 0.55 16.45 0.55 13.43-0.58 10.4-1.7 8-3.8 5.6-5.9 4.15-9.33 2.7-12.75 2.7-17.1 2.7-21.45 4.3-25.1 5.9-28.75 8.5-31.05L8.5-31.05Q13.95-35.8 21-35.8ZM91-8.1L91 0 62.7 0 62.7-2.2 67.25-3.85 67.25-31.45 62.7-33.1 62.7-35.3 76.85-35.3 76.85-33.1 72.3-31.45 72.3-3.8 86.75-3.8 88.4-8.1 91-8.1ZM145.73-4.48Q140.66 0.5 133.66 0.5 126.66 0.5 121.63-4.48 116.61-9.45 116.61-17.53 116.61-25.6 121.66-30.68 126.71-35.75 133.66-35.75 140.61-35.75 145.71-30.68 150.81-25.6 150.81-17.53 150.81-9.45 145.73-4.48ZM122.06-17.53Q122.06-11.6 125.18-7.55 128.31-3.5 133.68-3.5 139.06-3.5 142.16-7.55 145.26-11.6 145.26-17.53 145.26-23.45 142.16-27.58 139.06-31.7 133.63-31.7 128.21-31.7 125.13-27.58 122.06-23.45 122.06-17.53ZM195.61 0L195.61 0 178.26 0 178.26-2.2 182.81-3.85 182.81-31.45 178.26-33.1 178.26-35.3 192.91-35.3Q199.61-35.3 202.81-31.4L202.81-31.4Q204.61-29.2 204.61-26L204.61-26Q204.61-21.3 201.41-18.85L201.41-18.85Q207.31-16.7 207.31-10.15L207.31-10.15Q207.31-7.45 206.21-5.4 205.11-3.35 203.31-2.2L203.31-2.2Q199.81 0 195.61 0ZM187.86-16.45L187.86-3.75 193.26-3.75Q197.86-3.75 200.13-5.15 202.41-6.55 202.41-10 202.41-13.45 200.46-14.95 198.51-16.45 195.46-16.45L195.46-16.45 187.86-16.45ZM187.91-31.55L187.91-19.75 192.76-19.75Q199.71-19.75 199.71-25.95L199.71-25.95Q199.71-29.15 197.41-30.35 195.11-31.55 190.56-31.55L190.56-31.55 187.91-31.55ZM269.46-2.2L269.46 0 255.86 0 255.86-2.2 259.96-3.85 256.41-12.7 243.41-12.7 239.86-3.85 243.86-2.2 243.86 0 230.76 0 230.76-2.2 234.86-3.85 247.16-35.3 252.31-35.3 265.11-3.85 269.46-2.2ZM244.71-16.1L255.11-16.1 249.81-30.15 244.71-16.1ZM321.57-8.1L321.57 0 293.27 0 293.27-2.2 297.82-3.85 297.82-31.45 293.27-33.1 293.27-35.3 307.42-35.3 307.42-33.1 302.87-31.45 302.87-3.8 317.32-3.8 318.97-8.1 321.57-8.1Z" opacity="1" transform="matrix(1,0,0,1,0,0)" fill="#000000" class="slogan-text-1" data-fill-palette-color="secondary" id="text-1"></path></svg></g></svg></g></svg></g></svg></g><g></g></svg></g><defs></defs></svg><rect width="395.52" height="176.46595003525493" fill="none" stroke="none" visibility="hidden"></rect></g></svg></g></svg>