<svg xmlns="http://www.w3.org/2000/svg" version="1.1" xmlns:xlink="http://www.w3.org/1999/xlink" xmlns:svgjs="http://svgjs.dev/svgjs" width="1500" height="933" viewBox="0 0 1500 933"><g transform="matrix(1,0,0,1,-1.8351063829786654,-1.4165850641026054)"><svg viewBox="0 0 376 234" data-background-color="#ffffff" preserveAspectRatio="xMidYMid meet" height="933" width="1500" xmlns="http://www.w3.org/2000/svg" xmlns:xlink="http://www.w3.org/1999/xlink"><g id="tight-bounds" transform="matrix(1,0,0,1,0.46023999999999887,0.3552850000000092)"><svg viewBox="0 0 375.07953 233.28942999999998" height="233.28942999999998" width="375.07953"><g><svg></svg></g><g><svg viewBox="0 0 375.07953 233.28942999999998" height="233.28942999999998" width="375.07953"><g transform="matrix(1,0,0,1,-10.22024,-13.910570000000007)"><path d="M10.22 233.289v-219.378h375.08v219.378l-19.865 0 0-3.156h16.708v-213.066h-368.766v213.066l20.463 0 0 3.156z" fill="#0d6efd" fill-rule="nonzero" stroke="none" stroke-width="1" stroke-linecap="butt" stroke-linejoin="miter" stroke-miterlimit="10" stroke-dasharray="" stroke-dashoffset="0" font-family="none" font-weight="none" font-size="none" text-anchor="none" style="mix-blend-mode: normal" data-fill-palette-color="tertiary"></path><g><path d="M55.568 247.2v0c-2.402 0-4.517-0.615-6.345-1.845-1.834-1.23-3.278-2.973-4.332-5.229-1.055-2.256-1.582-4.921-1.582-7.997v0c0-3.076 0.527-5.727 1.582-7.953 1.055-2.226 2.499-3.934 4.332-5.124 1.828-1.183 3.943-1.775 6.345-1.775v0c2.373 0 4.482 0.592 6.327 1.775 1.845 1.189 3.29 2.897 4.333 5.124 1.037 2.226 1.555 4.877 1.555 7.953v0c0 3.076-0.518 5.741-1.555 7.997-1.043 2.256-2.487 3.999-4.333 5.229-1.845 1.23-3.955 1.845-6.327 1.845zM55.568 244.344v0c1.758 0 3.304-0.507 4.64-1.52 1.33-1.008 2.361-2.425 3.094-4.254 0.732-1.834 1.098-3.981 1.098-6.441v0c0-2.461-0.366-4.584-1.098-6.372-0.732-1.787-1.763-3.172-3.094-4.156-1.336-0.978-2.882-1.468-4.64-1.468v0c-1.787 0-3.345 0.489-4.675 1.468-1.336 0.984-2.37 2.37-3.102 4.156-0.732 1.787-1.098 3.911-1.099 6.372v0c0 2.461 0.366 4.608 1.099 6.441 0.732 1.828 1.766 3.246 3.102 4.254 1.33 1.014 2.888 1.52 4.675 1.52zM101.96 246.673h-3.252v-28.869h7.997c2.138 0 4.013 0.264 5.624 0.791 1.611 0.527 2.862 1.406 3.753 2.637 0.896 1.23 1.345 2.885 1.344 4.965v0c0 1.992-0.439 3.632-1.318 4.921-0.879 1.289-2.109 2.256-3.691 2.9-1.582 0.644-3.427 0.967-5.536 0.967v0h-4.921zM101.96 220.441v11.863h4.438c2.636 0 4.59-0.492 5.861-1.476 1.277-0.978 1.916-2.522 1.916-4.631v0c0-2.168-0.668-3.67-2.004-4.508-1.33-0.832-3.313-1.248-5.949-1.248v0zM157.315 246.673h-3.252v-26.1h-8.875v-2.769h20.959v2.769h-8.832zM199.269 246.673h-3.252v-28.869h3.252zM242.4 247.2v0c-2.402 0-4.517-0.615-6.345-1.845-1.834-1.23-3.278-2.973-4.333-5.229-1.055-2.256-1.582-4.921-1.581-7.997v0c0-3.076 0.527-5.727 1.581-7.953 1.055-2.226 2.499-3.934 4.333-5.124 1.828-1.183 3.943-1.775 6.345-1.775v0c2.373 0 4.482 0.592 6.327 1.775 1.845 1.189 3.29 2.897 4.332 5.124 1.037 2.226 1.555 4.877 1.556 7.953v0c0 3.076-0.518 5.741-1.556 7.997-1.043 2.256-2.487 3.999-4.332 5.229-1.845 1.23-3.955 1.845-6.327 1.845zM242.4 244.344v0c1.758 0 3.304-0.507 4.64-1.52 1.33-1.008 2.361-2.425 3.093-4.254 0.732-1.834 1.098-3.981 1.099-6.441v0c0-2.461-0.366-4.584-1.099-6.372-0.732-1.787-1.763-3.172-3.093-4.156-1.336-0.978-2.882-1.468-4.64-1.468v0c-1.787 0-3.345 0.489-4.675 1.468-1.336 0.984-2.37 2.37-3.103 4.156-0.732 1.787-1.098 3.911-1.098 6.372v0c0 2.461 0.366 4.608 1.098 6.441 0.732 1.828 1.766 3.246 3.103 4.254 1.33 1.014 2.888 1.52 4.675 1.52zM288.615 246.673h-3.075v-28.869h3.339l10.897 18.719 3.164 5.932h0.176c-0.088-1.465-0.182-2.967-0.282-4.509-0.105-1.535-0.158-3.035-0.158-4.499v0-15.643h3.076v28.869h-3.339l-10.897-18.719-3.164-5.931h-0.176c0.117 1.435 0.22 2.891 0.308 4.367 0.088 1.482 0.132 2.97 0.131 4.464v0zM346.299 247.2v0c-2.021 0-3.881-0.395-5.58-1.186-1.699-0.791-3.178-1.831-4.438-3.12v0l1.978-2.241c1.055 1.113 2.279 2.007 3.673 2.68 1.388 0.674 2.859 1.011 4.411 1.011v0c1.992 0 3.544-0.463 4.658-1.389 1.113-0.92 1.67-2.127 1.67-3.62v0c0-1.025-0.22-1.854-0.659-2.487-0.439-0.627-1.025-1.154-1.758-1.582-0.732-0.422-1.567-0.838-2.505-1.248v0l-4.174-1.845c-0.879-0.381-1.772-0.879-2.68-1.494-0.908-0.615-1.661-1.391-2.259-2.329-0.603-0.937-0.905-2.124-0.905-3.559v0c0-1.465 0.39-2.762 1.169-3.893 0.773-1.125 1.828-2.01 3.164-2.654 1.33-0.644 2.844-0.967 4.543-0.967v0c1.728 0 3.319 0.337 4.772 1.011 1.447 0.674 2.654 1.523 3.621 2.548v0l-1.758 2.065c-0.85-0.85-1.822-1.523-2.918-2.021-1.101-0.498-2.341-0.747-3.717-0.747v0c-1.67 0-3.023 0.401-4.06 1.204-1.043 0.808-1.564 1.901-1.564 3.278v0c0 0.967 0.249 1.758 0.747 2.373 0.498 0.615 1.122 1.119 1.872 1.511 0.744 0.398 1.482 0.759 2.214 1.081v0l4.174 1.846c1.113 0.469 2.118 1.025 3.015 1.669 0.891 0.644 1.608 1.45 2.153 2.417 0.539 0.967 0.808 2.168 0.808 3.603v0c0 1.494-0.387 2.856-1.16 4.086-0.779 1.23-1.892 2.203-3.339 2.918-1.453 0.721-3.175 1.081-5.168 1.081z" fill="#000000" fill-rule="nonzero" stroke="none" stroke-width="1" stroke-linecap="butt" stroke-linejoin="miter" stroke-miterlimit="10" stroke-dasharray="" stroke-dashoffset="0" font-family="none" font-weight="none" font-size="none" text-anchor="none" style="mix-blend-mode: normal" data-fill-palette-color="secondary" id="text-1"></path></g></g><g transform="matrix(1,0,0,1,29.33176499999999,63.805166220988895)"><svg viewBox="0 0 316.416 105.67909755802219" height="105.67909755802219" width="316.416"><g><svg viewBox="0 0 316.416 105.67909755802219" height="105.67909755802219" width="316.416"><g><svg viewBox="0 0 316.416 105.67909755802219" height="105.67909755802219" width="316.416"><g id="textblocktransform"><svg viewBox="0 0 316.416 105.67909755802219" height="105.67909755802219" width="316.416" id="textblock"><g><svg viewBox="0 0 316.416 105.67909755802219" height="105.67909755802219" width="316.416"><rect width="316.416" height="105.67909755802219" x="0" y="0" opacity="1" fill="#0d6efd" data-fill-palette-color="tertiary"></rect><g transform="matrix(1,0,0,1,16.52532,16.52532)"><svg width="283.36536" viewBox="4.7 -37.6 148.64000000000001 38.1" height="72.62845755802219" data-palette-color="#ffffff"><path d="M4.7 0L4.7-32.5 14.6-32.5Q21.6-32.5 25.48-28.28 29.35-24.05 29.35-16.15L29.35-16.15Q29.35-8.3 25.53-4.15 21.7 0 14.6 0L14.6 0 4.7 0ZM8.5-2.4L14.65-2.4Q25.25-2.4 25.25-16.15L25.25-16.15Q25.25-30.1 14.6-30.1L14.6-30.1 8.5-30.1 8.5-2.4ZM44.25 0.5Q39.25 0.5 36.4-2.63 33.55-5.75 33.55-12L33.55-12Q33.55-18.3 36.3-21.9 39.05-25.5 43.8-25.5L43.8-25.5Q48.1-25.5 50.42-22.53 52.75-19.55 52.75-14.1L52.75-14.1Q52.75-13.15 52.65-12.55 52.55-11.95 52.5-11.8L52.5-11.8 37.35-11.8Q37.35-1.7 44.65-1.7L44.65-1.7Q46.65-1.7 48.07-2.43 49.5-3.15 50.3-3.98 51.1-4.8 51.1-4.95L51.1-4.95 52.55-3.75Q52.55-3.55 51.6-2.48 50.65-1.4 48.8-0.45 46.95 0.5 44.25 0.5L44.25 0.5ZM37.4-13.9L49.35-13.9 49.4-14.85Q49.4-23.35 43.8-23.35L43.8-23.35Q40.85-23.35 39.25-21.03 37.65-18.7 37.4-13.9L37.4-13.9ZM61.7 0L58.05 0 58.05-37.4 61.7-37.6 61.7-13.55 64.75-15.65 72.2-25 74.95-25 66.7-14.75 76 0 71.84 0 63.9-12.6 61.7-11.25 61.7 0ZM80.89 0L80.89-25 83.89-25 84.34-22.35Q85.19-23.35 86.94-24.43 88.69-25.5 91.39-25.5L91.39-25.5Q93.44-25.5 94.72-24.78 95.99-24.05 96.64-22.45L96.64-22.45Q97.44-23.4 99.29-24.45 101.14-25.5 103.94-25.5L103.94-25.5Q107.09-25.5 108.54-23.85 109.99-22.2 109.99-18.35L109.99-18.35 109.99 0 106.34 0 106.34-17.95Q106.34-20.85 105.44-21.88 104.54-22.9 102.59-22.9L102.59-22.9Q100.54-22.9 99.17-21.98 97.79-21.05 97.14-20.15L97.14-20.15Q97.24-19.05 97.24-18.4L97.24-18.4 97.24 0 93.59 0 93.59-17.95Q93.59-20.8 92.72-21.85 91.84-22.9 89.94-22.9L89.94-22.9Q87.84-22.9 86.42-21.95 84.99-21 84.49-20.2L84.49-20.2 84.49 0 80.89 0ZM122.29 0.5Q118.99 0.5 116.99-1.13 114.99-2.75 114.99-5.65L114.99-5.65Q114.99-13 129.14-14.5L129.14-14.5 129.14-17.15Q129.14-20.7 127.99-22 126.84-23.3 123.94-23.3L123.94-23.3Q122.64-23.3 121.29-22.83 119.94-22.35 119.02-21.83 118.09-21.3 117.84-21.15L117.84-21.15 117.44-23.2Q117.69-23.4 118.72-23.95 119.74-24.5 121.32-25 122.89-25.5 124.49-25.5L124.49-25.5Q128.79-25.5 130.79-23.7 132.79-21.9 132.79-17.35L132.79-17.35 132.79-5.1Q132.79-3.1 133.17-2.4 133.54-1.7 134.09-1.7L134.09-1.7Q134.54-1.7 135.19-1.88 135.84-2.05 136.04-2.15L136.04-2.15 136.19-0.45Q135.79-0.3 134.49 0.1 133.19 0.5 132.29 0.5L132.29 0.5Q130.99 0.5 130.29-0.33 129.59-1.15 129.44-3.25L129.44-3.25 129.39-3.25Q129.39-3.05 128.59-2.1 127.79-1.15 126.22-0.33 124.64 0.5 122.29 0.5L122.29 0.5ZM123.39-1.7Q125.19-1.7 126.49-2.5 127.79-3.3 128.47-4.25 129.14-5.2 129.14-5.35L129.14-5.35 129.14-12.65Q124.59-12.15 121.67-10.7 118.74-9.25 118.74-6.1L118.74-6.1Q118.74-3.95 119.99-2.83 121.24-1.7 123.39-1.7L123.39-1.7ZM140.94 0L140.94-25 143.64-25 144.19-19.85Q144.19-20.15 144.76-21.58 145.34-23 146.54-24.25 147.74-25.5 149.64-25.5L149.64-25.5Q150.59-25.5 151.79-25.18 152.99-24.85 153.34-24.7L153.34-24.7 152.99-21.95Q152.64-22.1 151.41-22.4 150.19-22.7 149.24-22.7L149.24-22.7Q147.79-22.7 146.76-21.73 145.74-20.75 145.24-19.65 144.74-18.55 144.59-18L144.59-18 144.59 0 140.94 0Z" opacity="1" transform="matrix(1,0,0,1,0,0)" fill="#ffffff" class="wordmark-text-0" data-fill-palette-color="quaternary" id="text-0"></path></svg></g></svg></g></svg></g></svg></g></svg></g></svg></g></svg></g><defs></defs></svg><rect width="375.07953" height="233.28942999999998" fill="none" stroke="none" visibility="hidden"></rect></g></svg></g></svg>